<?xml version="1.0" standalone="no"?>
<!DOCTYPE svg PUBLIC "-//W3C//DTD SVG 1.0//EN" "http://www.w3.org/TR/2001/REC-SVG-20010904/DTD/svg10.dtd">
<svg xmlns="http://www.w3.org/2000/svg" xmlns:xlink="http://www.w3.org/1999/xlink" id="body_1" width="22" height="22">

<g transform="matrix(0.171875 0 0 0.171875 0 0)">
	<g>
	</g>
	<g>
	</g>
	<g>
        <path d="M37.41 41.95C 27.7 54.43 27.869999 76.600006 40.28 87.59C 54.37 100.06 74.2 99.92999 86.67 88.46C 101.619995 74.7 100.759995 51.8 87.54 38.829998C 74.25 25.789997 50.5 25.109997 37.41 41.949997L37.41 41.949997L37.41 41.95z" stroke="none" fill="#FCC11A" fill-rule="nonzero" />
        <path d="M53 37.67C 49.16 35.969997 44.96 40.6 43.13 43.76C 41.3 46.93 39.600002 53.14 43.5 54.73C 47.4 56.31 50.2 53.63 53.010002 49C 55.800003 44.37 57.390003 39.62 53.000004 37.67L53.000004 37.67L53 37.67z" stroke="none" fill="#FEE269" fill-rule="nonzero" />
        <path d="M63 20.27C 62.07 22.01 62.38 23.35 64.23 23.79C 66.08 24.230001 77.590004 26.1 78.560005 26.16C 79.97001 26.25 80.490005 25.19 80.32001 23.96C 80.14001 22.73 77.33001 5.5 77.07001 3.9199982C 76.810005 2.3399963 75.14 0.76 73.55 2.87C 71.96001 4.9799995 63.7 18.96 63 20.27z" stroke="none" fill="#FFA722" fill-rule="nonzero" />
        <path d="M92.8 32.23C 90.990005 32.79 91.04 33.899998 92.01 35.309998C 92.98 36.719997 99.66 46.909996 100.270004 47.62C 100.89001 48.32 101.94 48.5 102.82001 47.44C 103.700005 46.39 114.68001 30.989998 115.48001 30.029999C 116.80001 28.449999 116.01001 26.779999 113.99001 27.3C 112.45001 27.71 93.94002 31.88 92.80001 32.23L92.80001 32.23L92.8 32.23z" stroke="none" fill="#FFA722" fill-rule="nonzero" />
        <path d="M106.6 61.86C 105.299995 61.12 103.61 61.33 103.17 63C 102.729996 64.67 100.799995 76.8 100.619995 77.86C 100.439995 78.92 101.24 79.97 102.549995 79.71C 103.85999 79.45 122 76.76 123.20999 76.46C 125.31999 75.93 126.01999 73.82 123.829994 72.24C 122.409996 71.21 107.829994 62.559998 106.59999 61.859997L106.59999 61.859997L106.6 61.86z" stroke="none" fill="#FFA722" fill-rule="nonzero" />
        <path d="M92.09 90.6C 93.49 89.85 94.729996 90.42 95.079994 92.01C 95.42999 93.590004 99.299995 109.770004 99.92 112.76C 100.229996 114.26 98.509995 115.490005 97.11 114.61C 95.7 113.73 80.42 103.08 79.44 102.21C 78.03 100.979996 79.01 99.7 79.700005 99.049995C 81.100006 97.71999 90.770004 91.31 92.090004 90.6L92.090004 90.6L92.09 90.6z" stroke="none" fill="#FFA722" fill-rule="nonzero" />
        <path d="M49.54 99.48C 47.77 99.310005 47.25 100.89001 47.52 102.29C 47.78 103.700005 50.420002 121.53 50.6 122.86C 50.859997 124.79 52.89 125.590004 54.199997 123.65C 55.509995 121.71 64.549995 107.25 65.28 105.89C 66.6 103.43 65.63 102.9 64.31 102.29C 62.999996 101.68 51.39 99.66 49.539997 99.48L49.539997 99.48L49.54 99.48z" stroke="none" fill="#FFA722" fill-rule="nonzero" />
        <path d="M24.23 79C 25.46 76.98 27.039999 77.51 28.189999 79.44C 28.97 80.76 35.57 89.64 36.19 90.600006C 36.809998 91.57001 37.07 93.41 35.14 93.850006C 33.19 94.3 17.46 98.43001 15 98.87C 12.54 99.310005 11.13 97.380005 12.71 95.270004C 13.63 94.03001 23.529999 80.15 24.23 79z" stroke="none" fill="#FFA722" fill-rule="nonzero" />
        <path d="M20.89 63.7C 23.14 64.7 24.199999 64.340004 24.67 62.73C 25.29 60.62 27.130001 50.95 27.22 48.75C 27.279999 47.32 26.689999 45.94 24.49 46.29C 22.29 46.640003 6.47 48.85 4.45 49.55C 2.1 50.37 2.2699997 52.95 3.83 53.77C 5.68 54.74 19.3 63 20.89 63.7z" stroke="none" fill="#FFA722" fill-rule="nonzero" />
        <path d="M48.23 26.78C 49.5 25.77 49.11 24.32 47.97 23.53C 46.83 22.74 32.71 12.530001 30.920002 11.130001C 29.340002 9.900002 27.400002 10.340001 27.930002 13.150002C 28.310001 15.170002 32.81 32.850002 33.120003 34.07C 33.47 35.48 34.530003 36.18 35.760002 35.3C 36.97 34.43 46.910004 27.84 48.230003 26.779999L48.230003 26.779999L48.23 26.78z" stroke="none" fill="#FFA722" fill-rule="nonzero" />
	</g>
</g>
</svg>