<svg enable-background="new 0 0 504.4 504.4" viewBox="0 0 504.4 504.4" xmlns="http://www.w3.org/2000/svg"><path d="m377.6.2h-251.2c-69.6 0-126.4 56.8-126.4 126.4v251.6c0 69.2 56.8 126 126.4 126h251.6c69.6 0 126.4-56.8 126.4-126.4v-251.2c-.4-69.6-57.2-126.4-126.8-126.4zm-209.6 408h-72v-208h72zm-36.4-240c-20.4 0-36.8-16.4-36.8-36.8s16.4-36.8 36.8-36.8 36.8 16.4 36.8 36.8c-.4 20.4-16.8 36.8-36.8 36.8zm276.8 240h-.4-60v-100.8c0-24.4-3.2-55.6-36.4-55.6-34 0-39.6 26.4-39.6 54v102.4h-60v-208h56v28h1.6c8.8-16 29.2-28.4 61.2-28.4 66 0 77.6 38 77.6 94.4z"/></svg>